<svg id="visual" viewBox="0 0 540 960" width="540" height="960" xmlns="http://www.w3.org/2000/svg" xmlns:xlink="http://www.w3.org/1999/xlink" version="1.1"><rect x="0" y="0" width="540" height="960" fill="#ffd2b4"></rect><path d="M0 852L9 846.8C18 841.7 36 831.3 54 823.7C72 816 90 811 108 809.5C126 808 144 810 162 829C180 848 198 884 216 885.2C234 886.3 252 852.7 270 845.7C288 838.7 306 858.3 324 871.8C342 885.3 360 892.7 378 881.3C396 870 414 840 432 828.7C450 817.3 468 824.7 486 828C504 831.3 522 830.7 531 830.3L540 830L540 961L531 961C522 961 504 961 486 961C468 961 450 961 432 961C414 961 396 961 378 961C360 961 342 961 324 961C306 961 288 961 270 961C252 961 234 961 216 961C198 961 180 961 162 961C144 961 126 961 108 961C90 961 72 961 54 961C36 961 18 961 9 961L0 961Z" fill="#fff" stroke-linecap="round" stroke-linejoin="miter"></path></svg>