<svg id="visual" viewBox="0 0 900 600" width="900" height="600" xmlns="http://www.w3.org/2000/svg" xmlns:xlink="http://www.w3.org/1999/xlink" version="1.1"><rect x="0" y="0" width="900" height="600" fill="#bfc1b9"></rect><path d="M0 106L30 110C60 114 120 122 180 121C240 120 300 110 360 107.2C420 104.3 480 108.7 540 116.7C600 124.7 660 136.3 720 135.7C780 135 840 122 870 115.5L900 109L900 0L870 0C840 0 780 0 720 0C660 0 600 0 540 0C480 0 420 0 360 0C300 0 240 0 180 0C120 0 60 0 30 0L0 0Z" fill="#fff" stroke-linecap="round" stroke-linejoin="miter"></path></svg>