<svg id="visual" viewBox="0 0 900 600" width="900" height="600" xmlns="http://www.w3.org/2000/svg" xmlns:xlink="http://www.w3.org/1999/xlink" version="1.1"><rect x="0" y="0" width="900" height="600" fill="#fadac4"></rect><path d="M0 146L30 140C60 134 120 122 180 115.5C240 109 300 108 360 116.8C420 125.7 480 144.3 540 153.7C600 163 660 163 720 157C780 151 840 139 870 133L900 127L900 0L870 0C840 0 780 0 720 0C660 0 600 0 540 0C480 0 420 0 360 0C300 0 240 0 180 0C120 0 60 0 30 0L0 0Z" fill="#fff" stroke-linecap="round" stroke-linejoin="miter"></path></svg>