<svg id="visual" viewBox="0 0 900 600" width="900" height="600" xmlns="http://www.w3.org/2000/svg" xmlns:xlink="http://www.w3.org/1999/xlink" version="1.1"><rect x="0" y="0" width="900" height="600" fill="#f7e1d2"></rect><path d="M0 531L30 531.3C60 531.7 120 532.3 180 523.7C240 515 300 497 360 487.3C420 477.7 480 476.3 540 485.8C600 495.3 660 515.7 720 510.3C780 505 840 474 870 458.5L900 443L900 601L870 601C840 601 780 601 720 601C660 601 600 601 540 601C480 601 420 601 360 601C300 601 240 601 180 601C120 601 60 601 30 601L0 601Z" fill="#fff" stroke-linecap="round" stroke-linejoin="miter"></path></svg>