<svg id="visual" viewBox="0 0 900 600" width="900" height="600" xmlns="http://www.w3.org/2000/svg" xmlns:xlink="http://www.w3.org/1999/xlink" version="1.1"><rect x="0" y="0" width="900" height="600" fill="#f7e1d2"></rect><path d="M0 494L4.8 497C9.7 500 19.3 506 29 507.2C38.7 508.3 48.3 504.7 58 503.3C67.7 502 77.3 503 87 507C96.7 511 106.3 518 116 518.8C125.7 519.7 135.3 514.3 145 508.8C154.7 503.3 164.3 497.7 174 496C183.7 494.3 193.3 496.7 203 501.5C212.7 506.3 222.3 513.7 232 513.5C241.7 513.3 251.3 505.7 261 505.2C270.7 504.7 280.3 511.3 290 512.2C299.7 513 309.3 508 319 507.7C328.7 507.3 338.3 511.7 348 512.2C357.7 512.7 367.3 509.3 377 509.3C386.7 509.3 396.3 512.7 406 515.7C415.7 518.7 425.3 521.3 435.2 520.7C445 520 455 516 464.8 514C474.7 512 484.3 512 494 514.2C503.7 516.3 513.3 520.7 523 519.7C532.7 518.7 542.3 512.3 552 508.7C561.7 505 571.3 504 581 506C590.7 508 600.3 513 610 514.5C619.7 516 629.3 514 639 513C648.7 512 658.3 512 668 512.5C677.7 513 687.3 514 697 515.5C706.7 517 716.3 519 726 520.7C735.7 522.3 745.3 523.7 755 522C764.7 520.3 774.3 515.7 784 511.5C793.7 507.3 803.3 503.7 813 502.5C822.7 501.3 832.3 502.7 842 506.3C851.7 510 861.3 516 871 516C880.7 516 890.3 510 895.2 507L900 504L900 601L895.2 601C890.3 601 880.7 601 871 601C861.3 601 851.7 601 842 601C832.3 601 822.7 601 813 601C803.3 601 793.7 601 784 601C774.3 601 764.7 601 755 601C745.3 601 735.7 601 726 601C716.3 601 706.7 601 697 601C687.3 601 677.7 601 668 601C658.3 601 648.7 601 639 601C629.3 601 619.7 601 610 601C600.3 601 590.7 601 581 601C571.3 601 561.7 601 552 601C542.3 601 532.7 601 523 601C513.3 601 503.7 601 494 601C484.3 601 474.7 601 464.8 601C455 601 445 601 435.2 601C425.3 601 415.7 601 406 601C396.3 601 386.7 601 377 601C367.3 601 357.7 601 348 601C338.3 601 328.7 601 319 601C309.3 601 299.7 601 290 601C280.3 601 270.7 601 261 601C251.3 601 241.7 601 232 601C222.3 601 212.7 601 203 601C193.3 601 183.7 601 174 601C164.3 601 154.7 601 145 601C135.3 601 125.7 601 116 601C106.3 601 96.7 601 87 601C77.3 601 67.7 601 58 601C48.3 601 38.7 601 29 601C19.3 601 9.7 601 4.8 601L0 601Z" fill="#fff" stroke-linecap="round" stroke-linejoin="miter"></path></svg>