<svg id="visual" viewBox="0 0 450 900" width="450" height="900" xmlns="http://www.w3.org/2000/svg" xmlns:xlink="http://www.w3.org/1999/xlink" version="1.1"><rect x="0" y="0" width="450" height="900" fill="#f7e1d2"></rect><path d="M0 709L15 716.3C30 723.7 60 738.3 90 744.2C120 750 150 747 180 741.2C210 735.3 240 726.7 270 722C300 717.3 330 716.7 360 719.5C390 722.3 420 728.7 435 731.8L450 735L450 901L435 901C420 901 390 901 360 901C330 901 300 901 270 901C240 901 210 901 180 901C150 901 120 901 90 901C60 901 30 901 15 901L0 901Z" fill="#fff" stroke-linecap="round" stroke-linejoin="miter"></path></svg>