<svg id="visual" viewBox="0 0 960 540" width="960" height="540" xmlns="http://www.w3.org/2000/svg" xmlns:xlink="http://www.w3.org/1999/xlink" version="1.1"><rect x="0" y="0" width="960" height="540" fill="#ffd2b4"></rect><path d="M0 487L22.8 478.5C45.7 470 91.3 453 137 455.5C182.7 458 228.3 480 274 484.8C319.7 489.7 365.3 477.3 411.2 462.8C457 448.3 503 431.7 548.8 431.8C594.7 432 640.3 449 686 448.8C731.7 448.7 777.3 431.3 823 429.5C868.7 427.7 914.3 441.3 937.2 448.2L960 455L960 541L937.2 541C914.3 541 868.7 541 823 541C777.3 541 731.7 541 686 541C640.3 541 594.7 541 548.8 541C503 541 457 541 411.2 541C365.3 541 319.7 541 274 541C228.3 541 182.7 541 137 541C91.3 541 45.7 541 22.8 541L0 541Z" fill="#fff" stroke-linecap="round" stroke-linejoin="miter"></path></svg>