<svg id="visual" viewBox="0 0 900 600" width="900" height="600" xmlns="http://www.w3.org/2000/svg" xmlns:xlink="http://www.w3.org/1999/xlink" version="1.1"><rect x="0" y="0" width="900" height="600" fill="#f7e1d2"></rect><path d="M0 497L5.5 497C11 497 22 497 33.2 501.2C44.3 505.3 55.7 513.7 66.8 514.2C78 514.7 89 507.3 100 504.3C111 501.3 122 502.7 133.2 506.7C144.3 510.7 155.7 517.3 166.8 518.8C178 520.3 189 516.7 200 515C211 513.3 222 513.7 233.2 514.5C244.3 515.3 255.7 516.7 266.8 515.8C278 515 289 512 300 510.5C311 509 322 509 333.2 507.5C344.3 506 355.7 503 366.8 505C378 507 389 514 400 518C411 522 422 523 433.2 519.5C444.3 516 455.7 508 466.8 507.7C478 507.3 489 514.7 500 514C511 513.3 522 504.7 533.2 504.5C544.3 504.3 555.7 512.7 566.8 514.8C578 517 589 513 600 510.7C611 508.3 622 507.7 633.2 509C644.3 510.3 655.7 513.7 666.8 516.5C678 519.3 689 521.7 700 518.3C711 515 722 506 733.2 501.5C744.3 497 755.7 497 766.8 500.3C778 503.7 789 510.3 800 513.2C811 516 822 515 833.2 513.7C844.3 512.3 855.7 510.7 866.8 509.5C878 508.3 889 507.7 894.5 507.3L900 507L900 601L894.5 601C889 601 878 601 866.8 601C855.7 601 844.3 601 833.2 601C822 601 811 601 800 601C789 601 778 601 766.8 601C755.7 601 744.3 601 733.2 601C722 601 711 601 700 601C689 601 678 601 666.8 601C655.7 601 644.3 601 633.2 601C622 601 611 601 600 601C589 601 578 601 566.8 601C555.7 601 544.3 601 533.2 601C522 601 511 601 500 601C489 601 478 601 466.8 601C455.7 601 444.3 601 433.2 601C422 601 411 601 400 601C389 601 378 601 366.8 601C355.7 601 344.3 601 333.2 601C322 601 311 601 300 601C289 601 278 601 266.8 601C255.7 601 244.3 601 233.2 601C222 601 211 601 200 601C189 601 178 601 166.8 601C155.7 601 144.3 601 133.2 601C122 601 111 601 100 601C89 601 78 601 66.8 601C55.7 601 44.3 601 33.2 601C22 601 11 601 5.5 601L0 601Z" fill="#fff" stroke-linecap="round" stroke-linejoin="miter"></path></svg>